# xmcd
#
# Track frame offsets:
# 150
# 17096
# 34146
# 49060
# 65777
# 82704
# 101911
# 119459
# 133664
# 152497
# 174284
# 192288
# 207144
#
# Disc length: 2985 seconds
#
#
# Revision: 2
# Processed by: cddbd v1.5.2PL0 Copyright (c) Steve Scherf et al.
# Submitted via: FreeRIP 2.945 
#
DISCID=aa0ba70d
DTITLE=Shakira - Laundry Service
DYEAR=1900
DGENRE=
TTITLE0=¦cie¿ka 1
TTITLE1=¦cie¿ka 2
TTITLE2=¦cie¿ka 3
TTITLE3=¦cie¿ka 4
TTITLE4=¦cie¿ka 5
TTITLE5=¦cie¿ka 6
TTITLE6=¦cie¿ka 7
TTITLE7=¦cie¿ka 8
TTITLE8=¦cie¿ka 9
TTITLE9=¦cie¿ka 10
TTITLE10=¦cie¿ka 11
TTITLE11=¦cie¿ka 12
TTITLE12=¦cie¿ka 13
EXTD=
EXTT0=
EXTT1=
EXTT2=
EXTT3=
EXTT4=
EXTT5=
EXTT6=
EXTT7=
EXTT8=
EXTT9=
EXTT10=
EXTT11=
EXTT12=
PLAYORDER=
